<?xml version="1.0" encoding="UTF-8"?>
<!-- Created with Inkscape (http://www.inkscape.org/) -->
<svg width="100" height="125" version="1.1" viewBox="0 0 33.333 41.667" xmlns="http://www.w3.org/2000/svg">
 <g transform="matrix(.43924 0 0 .43938 -1.1656 -1.5041)" stroke-width=".99956">
  <g fill="#33bcad" stroke="#fff" stroke-linejoin="round">
   <path d="m13.029 77.623 8.6603-5-8.6603-35z"/>
   <path d="m17.359 30.123 8.6603 40 8.6603-30"/>
   <path d="m21.69 32.623v-10l21.651-12.5v10z"/>
  </g>
  <path d="m26.02 70.123 12.99-7.5v-20l-21.651-12.5z" fill-opacity="0" stroke="#fff"/>
  <g stroke="#fff">
   <path d="m77.981 70.123-21.651 12.5-8.6603-25 4.3301-2.5z" fill="#ddef00" stroke-linejoin="round"/>
   <path d="m30.35 87.623 8.6603-5v-30z" fill="#33bcad" stroke-linejoin="bevel"/>
   <path d="m4.3691 22.623v50l8.6603 5v-40l8.6603 45 8.6603 5 8.6603-35v40l8.6603 5v-50l-12.99-7.5-8.6603 30-8.6603-40" fill="#0a1446" stroke-linejoin="round"/>
  </g>
  <path d="m26.02 70.123 17.321-10" fill="#80e5ff"/>
  <path d="m47.631 47.5 30.35-17.377-8.6602-5-21.69 12.377-25.981-15 21.69-12.377-8.7381-5.2454-30.272 17.623z" fill="#ddef00" stroke="#fff" stroke-linejoin="round"/>
  <path d="m77.981 30.123v10l-21.651 12.5v30l21.651-12.5v10l-30.311 17.5v-50z" fill="#33bcad" stroke="#fff" stroke-linejoin="round"/>
 </g>
</svg>
